<?xml version="1.0" encoding="UTF-8"?><svg xmlns="http://www.w3.org/2000/svg" viewBox="0 0 2000 367.66"><defs><style>.d{fill:#fff;}</style></defs><g id="a"/><g id="b"><g id="c"><g><g><path class="d" d="M970.68,88.22l-86.26,235.32h-59l-90.06-235.32h60.56l45.81,131.18c4.61,11.62,9.68,28.46,15.2,50.5,4.17-19.07,8.12-33.74,11.84-44.02l45.59-137.66h56.32Z"/><path class="d" d="M1323.18,223.53h-174.31c2.83,18.25,9.97,32.17,21.44,41.74,11.46,9.58,25.91,14.37,43.34,14.37,10.99,0,21.04-2.38,30.15-7.13,9.1-4.75,18.37-12.71,27.8-23.87l41.69,30.09c-13.04,15.24-27.88,26.51-44.52,33.83-16.64,7.31-36.51,10.97-59.59,10.97-37.06,0-66.47-11.35-88.22-34.05-21.75-22.7-32.62-50.87-32.62-84.51s11.34-62.07,34.04-83.95c22.69-21.87,51.7-32.81,87.04-32.81,22.3,0,42.36,4.9,60.19,14.71,17.82,9.81,31.29,23.38,40.39,40.73,9.11,17.35,13.66,38.84,13.66,64.49,0,3.32-.16,8.45-.47,15.39Zm-58.89-39.6c-.32-16.14-5.62-29.07-15.9-38.8-10.29-9.73-23.36-14.59-39.22-14.59s-28.86,4.75-39.93,14.26c-11.07,9.5-17.78,22.55-20.14,39.14h115.18Z"/><path class="d" d="M1583.01,223.53h-174.31c2.83,18.25,9.97,32.17,21.44,41.74,11.46,9.58,25.91,14.37,43.34,14.37,10.99,0,21.04-2.38,30.15-7.13,9.1-4.75,18.37-12.71,27.8-23.87l41.69,30.09c-13.04,15.24-27.88,26.51-44.52,33.83-16.64,7.31-36.51,10.97-59.59,10.97-37.06,0-66.47-11.35-88.22-34.05-21.75-22.7-32.62-50.87-32.62-84.51s11.34-62.07,34.04-83.95c22.69-21.87,51.7-32.81,87.04-32.81,22.3,0,42.36,4.9,60.19,14.71,17.82,9.81,31.29,23.38,40.39,40.73,9.11,17.35,13.66,38.84,13.66,64.49,0,3.32-.16,8.45-.47,15.39Zm-58.89-39.6c-.32-16.14-5.62-29.07-15.9-38.8-10.29-9.73-23.36-14.59-39.22-14.59s-28.86,4.75-39.93,14.26c-11.07,9.5-17.78,22.55-20.14,39.14h115.18Z"/><path class="d" d="M1645.92,88.22l35.23,111.81c6.94,22.3,12.14,42.45,15.61,60.44,1.89-11.47,4.17-22.77,6.86-33.92,3.63-14.65,6.23-24.45,7.8-29.39l34.29-108.94h61.49l36.42,109.89c4.1,12.27,9.14,33.21,15.13,62.83,4.41-23.73,10.17-47.22,17.26-70.48l30.98-102.25h58.88l-78.98,235.32h-57.7l-37.6-109.18-9.46-31.06c-.94-2.71-1.81-5.57-2.6-8.6-1.58-6.53-3.47-15.21-5.68-26.04-3.63,21.18-8.91,42.92-15.84,65.22l-33.82,109.65h-59.83l-80.88-235.32h62.43Z"/><path class="d" d="M1985.27,88.22c2.44,0,4.84,.63,7.2,1.88,2.17,1.16,4.03,2.89,5.3,5,1.49,2.48,2.23,5.08,2.23,7.8s-.72,5.26-2.17,7.7c-1.24,2.1-3.06,3.86-5.19,5.06-2.34,1.31-4.78,1.97-7.33,1.97s-5.01-.65-7.34-1.94c-2.3-1.27-4.18-3.15-5.45-5.45-1.29-2.34-1.94-4.78-1.94-7.34,0-2.72,.75-5.33,2.24-7.82,1.27-2.11,3.14-3.84,5.31-5,2.35-1.25,4.73-1.87,7.14-1.87Zm0,2.51c-1.95,0-3.87,.5-5.77,1.49-1.98,1.04-3.66,2.65-4.75,4.6-1.08,1.95-1.62,3.97-1.62,6.09s.53,4.14,1.6,6.07c1.05,1.89,2.64,3.48,4.53,4.54,1.93,1.08,3.93,1.61,6.01,1.61s4.14-.54,6.07-1.62,3.48-2.65,4.52-4.55,1.59-3.94,1.59-6.05-.54-4.11-1.62-6.07c-1.07-1.94-2.72-3.55-4.68-4.59-1.92-1.02-3.88-1.53-5.88-1.53Zm-1.61,13.79v6.42h-3.64v-16.14h5.44c2.01,0,3.5,.3,4.47,.9,1.33,.86,2,2.17,2,3.92,0,1.12-.26,2.06-.78,2.8-.52,.74-1.35,1.3-2.47,1.66l4.03,6.85h-4.19l-3.56-6.42h-1.29Zm0-3.25h1.33c1.23,0,2.01-.08,2.35-.24,.57-.29,.86-.76,.86-1.41,0-.5-.18-.89-.55-1.17-.37-.29-1.1-.43-2.19-.43h-1.8v3.25Z"/><path class="d" d="M1058.91,29.68c.54,16.19-11.33,29.13-30.22,29.13-16.73,0-28.6-12.95-28.6-29.13s12.41-29.68,29.67-29.68,29.14,12.95,29.14,29.68Z"/><rect class="d" x="1000.09" y="88.22" width="58.83" height="235.32"/></g><path class="d" d="M616.65,102.46l-86.03-50.14c-18.79-10.95-42.14-10.95-60.93,0l-86.03,50.14c-18.79,10.96-30.47,31.37-30.47,53.28v12.92h-59.28v-12.92c0-21.91-11.67-42.32-30.47-53.28l-86.03-50.14c-18.79-10.95-42.14-10.95-60.93,0L30.47,102.46C11.67,113.42,0,133.83,0,155.74v100.29c0,21.91,11.67,42.32,30.47,53.28l86.02,50.14c9.4,5.48,19.93,8.22,30.47,8.22s21.07-2.74,30.47-8.22l86.03-50.14c18.79-10.95,30.47-31.37,30.47-53.28v-25.41h59.28v25.41c0,21.91,11.68,42.32,30.47,53.28l86.03,50.14c9.4,5.48,19.93,8.22,30.47,8.22s21.07-2.74,30.47-8.22l86.02-50.14c18.79-10.95,30.47-31.37,30.47-53.28v-100.29c0-21.91-11.67-42.32-30.47-53.28ZM253.3,256.03c0,7.3-3.89,14.11-10.16,17.76l-86.03,50.14c-6.26,3.65-14.05,3.65-20.31,0l-86.03-50.14c-6.26-3.65-10.15-10.46-10.15-17.76v-100.29c0-7.3,3.89-14.11,10.16-17.76l86.02-50.14c3.13-1.83,6.64-2.74,10.16-2.74s7.02,.91,10.15,2.74l86.03,50.14c6.26,3.65,10.16,10.46,10.16,17.76v100.29Zm353.2,0c0,7.3-3.89,14.11-10.16,17.76l-86.03,50.14c-6.26,3.65-14.05,3.65-20.31,0l-86.03-50.14c-6.26-3.65-10.15-10.46-10.15-17.76v-100.29c0-7.3,3.89-14.11,10.16-17.76l86.03-50.14c3.13-1.82,6.64-2.74,10.16-2.74s7.02,.91,10.16,2.74l86.02,50.14c6.26,3.65,10.16,10.46,10.16,17.76v100.29Z"/></g></g></g></svg>