<?xml version="1.0" encoding="UTF-8"?><svg xmlns="http://www.w3.org/2000/svg" xmlns:xlink="http://www.w3.org/1999/xlink" viewBox="0 0 2000 1227.28"><defs><style>.e{fill:url(#d);}.f{fill:#140b22;}</style><linearGradient id="d" x1="1219.27" y1="679.76" x2="780.72" y2="-79.83" gradientTransform="matrix(1, 0, 0, 1, 0, 0)" gradientUnits="userSpaceOnUse"><stop offset="0" stop-color="#dd6db9"/><stop offset=".84" stop-color="#672fd3"/><stop offset="1" stop-color="#672fd3"/></linearGradient></defs><g id="a"/><g id="b"><g id="c"><g><g><path class="f" d="M372.15,855.13l-136.42,372.15h-93.3L0,855.13H95.78l72.45,207.46c7.3,18.38,15.31,45,24.03,79.87,6.59-30.16,12.84-53.36,18.73-69.62l72.1-217.71h89.06Z"/><path class="f" d="M929.63,1069.12h-275.67c4.47,28.87,15.77,50.87,33.9,66.02,18.12,15.15,40.98,22.72,68.54,22.72,17.38,0,33.28-3.76,47.68-11.27,14.4-7.52,29.06-20.1,43.96-37.75l65.94,47.59c-20.62,24.1-44.09,41.93-70.41,53.5-26.32,11.57-57.74,17.35-94.24,17.35-58.62,0-105.12-17.95-139.51-53.85-34.4-35.9-51.59-80.45-51.59-133.65s17.94-98.16,53.83-132.76c35.88-34.59,81.77-51.89,137.64-51.89,35.26,0,66.99,7.76,95.18,23.26,28.18,15.51,49.48,36.98,63.88,64.41,14.4,27.43,21.61,61.43,21.61,101.98,0,5.25-.25,13.36-.74,24.33Zm-93.13-62.62c-.5-25.53-8.88-45.98-25.14-61.37-16.27-15.39-36.94-23.08-62.03-23.08s-45.64,7.52-63.14,22.54c-17.51,15.03-28.12,35.67-31.85,61.91h182.16Z"/><path class="f" d="M1340.54,1069.12h-275.67c4.47,28.87,15.77,50.87,33.9,66.02,18.12,15.15,40.98,22.72,68.54,22.72,17.38,0,33.28-3.76,47.68-11.27,14.4-7.52,29.06-20.1,43.96-37.75l65.94,47.59c-20.62,24.1-44.09,41.93-70.41,53.5-26.32,11.57-57.74,17.35-94.24,17.35-58.62,0-105.12-17.95-139.51-53.85-34.4-35.9-51.59-80.45-51.59-133.65s17.94-98.16,53.83-132.76c35.88-34.59,81.77-51.89,137.64-51.89,35.26,0,66.99,7.76,95.18,23.26,28.18,15.51,49.48,36.98,63.88,64.41,14.4,27.43,21.61,61.43,21.61,101.98,0,5.25-.25,13.36-.74,24.33Zm-93.13-62.62c-.5-25.53-8.88-45.98-25.14-61.37-16.27-15.39-36.94-23.08-62.03-23.08s-45.64,7.52-63.14,22.54c-17.51,15.03-28.12,35.67-31.85,61.91h182.16Z"/><path class="f" d="M1440.02,855.13l55.72,176.82c10.97,35.27,19.19,67.13,24.69,95.59,2.99-18.14,6.6-36.02,10.84-53.65,5.73-23.17,9.85-38.66,12.34-46.47l54.23-172.29h97.24l57.59,173.8c6.48,19.4,14.46,52.52,23.93,99.37,6.98-37.53,16.08-74.68,27.3-111.46l48.99-161.71h93.12l-124.91,372.15h-91.25l-59.47-172.66-14.96-49.12c-1.49-4.28-2.87-8.82-4.11-13.6-2.5-10.33-5.49-24.05-8.98-41.18-5.74,33.5-14.09,67.88-25.06,103.14l-53.48,173.42h-94.62l-127.91-372.15h98.74Z"/><path class="f" d="M1976.71,855.13c3.87,0,7.66,.99,11.38,2.98,3.43,1.83,6.38,4.58,8.37,7.91,2.35,3.93,3.53,8.04,3.53,12.34s-1.14,8.32-3.42,12.18c-1.96,3.33-4.84,6.11-8.21,8-3.7,2.07-7.56,3.11-11.6,3.11s-7.92-1.02-11.61-3.07c-3.63-2.01-6.61-4.99-8.61-8.62-2.04-3.69-3.06-7.56-3.06-11.61,0-4.31,1.18-8.43,3.55-12.36,2-3.33,4.96-6.07,8.39-7.9,3.71-1.98,7.48-2.96,11.29-2.96Zm0,3.96c-3.08,0-6.12,.78-9.12,2.35-3.13,1.64-5.79,4.19-7.51,7.28-1.71,3.08-2.57,6.29-2.57,9.63s.85,6.54,2.54,9.6c1.66,2.99,4.17,5.51,7.16,7.18,3.04,1.7,6.21,2.55,9.5,2.55s6.54-.86,9.6-2.57c2.98-1.67,5.5-4.2,7.15-7.19,1.68-3.04,2.52-6.23,2.52-9.56s-.86-6.5-2.57-9.6c-1.69-3.06-4.3-5.62-7.4-7.25-3.04-1.61-6.14-2.41-9.3-2.41Zm-2.54,21.8v10.16h-5.76v-25.52h8.61c3.18,0,5.53,.48,7.06,1.42,2.11,1.36,3.16,3.43,3.16,6.19,0,1.78-.41,3.25-1.24,4.43-.83,1.18-2.13,2.06-3.9,2.63l6.38,10.84h-6.63l-5.64-10.16h-2.04Zm0-5.14h2.11c1.94,0,3.18-.12,3.72-.37,.91-.45,1.36-1.2,1.36-2.23,0-.78-.29-1.4-.87-1.86-.58-.45-1.73-.68-3.47-.68h-2.85v5.14Z"/><path class="f" d="M511.68,762.54c.85,25.6-17.92,46.08-47.79,46.08-26.45,0-45.22-20.48-45.22-46.08s19.63-46.93,46.93-46.93,46.08,20.48,46.08,46.93Z"/><rect class="f" x="418.67" y="855.13" width="93.04" height="372.15"/></g><path class="e" d="M1543.44,108.21L1383.93,15.23c-34.84-20.31-78.13-20.31-112.98,0l-159.51,92.97c-34.84,20.31-56.49,58.16-56.49,98.78v23.95h-109.91v-23.95c0-40.62-21.65-78.47-56.49-98.78L729.05,15.23c-34.84-20.31-78.13-20.31-112.98,0l-159.51,92.97c-34.84,20.31-56.49,58.16-56.49,98.78v185.95c0,40.62,21.65,78.47,56.49,98.78l159.5,92.97c17.43,10.16,36.96,15.23,56.49,15.23s39.07-5.08,56.49-15.23l159.5-92.97c34.84-20.31,56.49-58.16,56.49-98.78v-47.12h109.91v47.12c0,40.62,21.65,78.47,56.49,98.78l159.5,92.97c17.43,10.16,36.96,15.23,56.49,15.23s39.07-5.08,56.49-15.23l159.5-92.97c34.85-20.31,56.49-58.16,56.49-98.78V206.99c0-40.62-21.65-78.47-56.49-98.78ZM869.72,392.94c0,13.54-7.21,26.16-18.83,32.93l-159.51,92.97c-11.62,6.77-26.05,6.77-37.66,0l-159.51-92.97c-11.61-6.77-18.83-19.39-18.83-32.93V206.99c0-13.54,7.22-26.15,18.83-32.93l159.5-92.97c5.81-3.39,12.32-5.08,18.83-5.08s13.02,1.69,18.83,5.08l159.5,92.97c11.62,6.77,18.83,19.39,18.83,32.93v185.95Zm654.88,0c0,13.54-7.21,26.16-18.83,32.93l-159.51,92.97c-11.61,6.77-26.04,6.77-37.66,0l-159.51-92.97c-11.61-6.77-18.83-19.39-18.83-32.93V206.99c0-13.54,7.22-26.15,18.83-32.93l159.5-92.97c5.81-3.38,12.32-5.08,18.83-5.08s13.02,1.69,18.83,5.08l159.5,92.97c11.62,6.77,18.83,19.39,18.83,32.93v185.95Z"/></g></g></g></svg>